PathFileType	4	(X/Y/Z)	D:\TRACE\spotREDO_2-26-24\spot_baseline_1-v60.trc
DataRate	CameraRate	NumFrames	NumMarkers	Units	OrigDataRate	OrigDataStartFrame	OrigNumFrames
100.00	100.00	      35	9	mm	100.00	3501	      7000
Frame#	Time	front left toe			Front right toe			aft left toe			aft right toe			Arm			FL body			FR body			AL Body			AR Body			
		X1	Y1	Z1	X2	Y2	Z2	X3	Y3	Z3	X4	Y4	Z4	X5	Y5	Z5	X6	Y6	Z6	X7	Y7	Z7	X8	Y8	Z8	X9	Y9	Z9	

3501	35.000	-251.99947	18.98899	-153.42242	213.28137	21.31989	-208.00113	-196.83238	21.74539	286.91586	266.10339	24.48286	229.06119	-33.12793	807.63959	-393.42422	-115.00710	549.17322	-358.86627	39.82957	552.62238	-380.68362	0.55925	558.00305	517.32263	148.26456	557.52502	498.85489	
3502	35.010	-251.96088	19.02491	-153.38159	213.25676	21.29304	-207.94969	-196.79007	21.79278	286.96777	266.22018	24.49400	229.12048	-32.57583	807.60455	-392.46371	-114.55106	549.09528	-357.83389	40.32056	552.67505	-380.00650	1.00497	557.98309	518.17450	148.60197	557.53296	499.33859	
3503	35.020	-251.96460	19.08614	-153.36391	213.22810	21.20544	-207.88065	-196.73912	21.84769	286.99707	266.25818	24.49279	229.15086	-32.39386	807.66278	-392.04788	-114.25908	549.06818	-357.25357	40.63271	552.48859	-379.42740	1.24470	557.93658	518.75549	149.31941	557.38104	500.42328	
3504	35.030	-251.95586	19.08986	-153.35472	213.35364	21.13969	-207.71024	-196.72449	21.88707	287.03168	266.24997	24.45809	229.14676	-32.11802	807.62592	-391.38855	-114.23083	549.27698	-356.68213	41.03593	552.36560	-378.63632	1.66349	557.89520	519.33746	149.62848	557.11658	500.97189	
3505	35.040	-251.90843	19.11872	-153.31459	213.18825	21.07851	-207.85100	-196.73520	21.88955	287.01703	266.24466	24.47075	229.17680	-31.64747	807.62225	-390.50369	-113.86327	549.22021	-355.75592	41.42825	552.36768	-377.92502	2.17508	557.84656	520.21442	150.11148	557.04419	501.63379	
3506	35.050	-251.92094	19.14995	-153.27939	213.37091	21.05236	-207.67052	-196.72014	21.87034	287.06555	266.27927	24.47459	229.16899	-31.43089	807.71002	-389.91321	-113.42605	549.19525	-355.15607	41.52924	552.42975	-377.40005	2.34048	557.85303	520.72089	150.75374	556.91107	502.36414	
3507	35.060	-251.89272	19.22080	-153.23927	213.30656	21.10238	-207.64854	-196.71114	21.94592	287.06317	266.23935	24.46610	229.17755	-30.76596	807.72913	-389.15109	-113.05502	549.34174	-354.60709	42.08596	552.51605	-376.54556	3.11814	557.71802	521.34076	151.33891	556.93292	503.16672	
3508	35.070	-251.86435	19.25296	-153.15363	213.32124	21.03336	-207.69211	-196.71786	21.99141	287.08286	266.29312	24.50100	229.21664	-30.17890	807.69739	-388.54013	-112.67440	549.40076	-353.79538	42.34089	552.36224	-375.88437	3.39611	557.70514	522.07001	150.16093	556.97620	503.63638	
3509	35.080	-251.81985	19.28931	-153.11659	213.38638	21.13241	-207.50827	-196.68779	22.00041	287.10999	266.27859	24.46149	229.25955	-29.79702	807.70624	-387.78516	-112.17464	549.43793	-353.12820	42.64030	552.28790	-375.22440	3.47152	557.98090	522.90363	150.47612	556.90656	504.46051	
3510	35.090	-251.78171	19.30602	-153.04178	213.46320	21.09175	-207.49365	-196.69205	22.00463	287.13138	266.29785	24.39625	229.32921	-29.16803	807.68463	-387.09457	-111.70624	549.36176	-352.40909	43.09002	552.26294	-374.41550	3.93856	557.86902	523.67365	149.65961	557.14636	505.25510	
3511	35.100	-251.75842	19.36970	-153.04329	213.22554	20.95845	-207.59216	-196.66414	22.02856	287.11627	266.42648	24.39608	229.37486	-28.57553	807.55890	-386.44199	-111.40086	549.29913	-351.66620	43.48965	552.10834	-373.65079	4.22311	557.88751	524.26306	150.51932	556.91290	505.79901	
3512	35.110	-251.62318	19.34360	-152.93414	213.51669	20.90227	-207.35477	-196.64699	22.04814	287.18234	266.44702	24.31664	229.40706	-28.23944	807.53625	-385.84155	-110.98930	549.20605	-350.92416	44.00538	552.02277	-372.87607	4.45231	557.88403	525.10266	150.98790	556.82495	506.53400	
3513	35.120	-251.60265	19.41922	-152.87679	213.50673	21.01745	-207.31964	-196.64473	22.14005	287.18246	266.43201	24.28928	229.49554	-27.73755	807.48431	-385.04266	-111.02402	549.46259	-350.57919	44.37563	552.00549	-372.31866	4.94534	557.97131	525.90021	151.61641	556.76654	507.21570	
3514	35.130	-251.50610	19.45903	-152.81201	213.60890	20.95277	-207.19521	-196.62038	22.11255	287.17871	266.49689	24.27217	229.51604	-27.25836	807.54504	-384.30276	-110.24729	549.27948	-349.45432	44.61274	551.93079	-371.52197	5.35413	557.91382	526.49200	152.29317	556.67078	508.19626	
3515	35.140	-251.50325	19.44394	-152.74962	213.64546	20.98049	-207.08955	-196.59387	22.08117	287.18658	266.51822	24.24675	229.59169	-26.87544	807.40497	-383.52158	-109.89198	549.21191	-348.71320	45.21192	551.92944	-370.73691	5.87913	558.04163	527.39240	152.79428	556.72137	508.76660	
3516	35.150	-251.47244	19.47814	-152.69356	213.58882	20.93339	-207.07788	-196.58385	22.10672	287.20126	266.50534	24.22421	229.61433	-26.47804	807.43634	-382.85681	-109.49489	549.15784	-347.85730	45.57730	551.78192	-370.00391	6.53867	558.09839	527.79559	153.57368	556.72247	509.57883	
3517	35.160	-251.39270	19.42200	-152.66382	213.67596	20.87928	-207.00780	-196.61183	22.14202	287.18442	266.59763	24.19506	229.63167	-25.86453	807.32019	-382.04688	-109.27706	549.32690	-347.21994	45.85405	551.75085	-369.22412	6.96744	558.10046	528.75024	154.02110	556.77802	510.44601	
3518	35.170	-251.35284	19.42293	-152.57980	213.65205	20.88876	-207.00365	-196.61011	22.13806	287.19006	266.58194	24.21509	229.63419	-25.23177	807.29010	-381.28781	-108.99776	549.30707	-346.23398	46.52259	551.73877	-368.36264	7.18874	558.41351	529.64685	154.99986	556.92810	511.48120	
3519	35.180	-251.34027	19.41285	-152.56038	213.33852	20.95962	-207.13301	-196.59856	22.15491	287.20801	266.66040	24.18001	229.69180	-24.88931	807.33527	-380.84076	-108.06821	549.20905	-345.38480	46.86933	551.61603	-367.72208	7.77621	558.36853	530.35052	155.15924	556.75897	511.79999	
3520	35.190	-251.27232	19.38443	-152.52167	213.66916	20.90382	-206.88332	-196.60788	22.14956	287.21985	266.66428	24.14907	229.72322	-24.12659	807.26465	-379.73886	-107.89597	549.46625	-344.99924	47.25714	551.68359	-366.91992	8.29520	558.42438	531.11316	155.19464	556.88873	512.63971	
3521	35.200	-251.27777	19.39039	-152.50923	213.71317	20.91994	-206.83823	-196.63565	22.14784	287.27158	266.69162	24.14622	229.74931	-23.83276	807.40137	-379.12338	-107.47395	549.60510	-344.10370	47.66865	551.72479	-366.12921	8.51253	558.49164	531.78979	155.92758	556.70831	513.45691	
3522	35.210	-251.29958	19.41505	-152.48375	213.36020	20.95800	-206.98729	-196.60019	22.19662	287.25275	266.68204	24.08233	229.76649	-23.36112	807.58862	-378.46695	-107.15374	549.73120	-343.45944	47.68930	551.76367	-365.62180	9.10356	558.52032	532.76776	156.40092	556.82025	514.05566	
3523	35.220	-251.21182	19.39343	-152.45961	213.68324	20.90438	-206.76901	-196.57823	22.20815	287.27191	266.73566	24.08053	229.81267	-22.83733	807.64996	-377.58450	-106.62228	549.77673	-342.40182	48.10621	551.77216	-364.61768	9.39758	558.63202	533.37482	156.74327	556.83057	515.01007	
3524	35.230	-251.20789	19.42261	-152.39842	213.74031	20.92820	-206.63902	-196.57700	22.23787	287.30548	266.71375	24.12674	229.85478	-22.42432	807.87897	-376.67670	-106.44131	549.86011	-341.70810	48.51625	551.93774	-363.82205	9.80614	558.68665	534.17517	157.26361	556.88776	515.74243	
3525	35.240	-251.24249	19.47620	-152.38968	213.49127	20.95107	-206.79257	-196.53223	22.25688	287.31415	266.72937	24.13335	229.90486	-21.93227	807.79773	-375.91467	-106.03324	549.96832	-340.73959	48.04171	552.24097	-363.21405	10.24605	558.91089	535.01917	157.68523	556.91785	516.43048	
3526	35.250	-251.21474	19.48356	-152.35406	213.47986	20.94534	-206.70894	-196.51076	22.29806	287.41882	266.73065	24.07824	229.92729	-21.56095	807.98596	-375.07669	-105.64722	550.12183	-340.07675	48.60060	552.29297	-362.38239	10.51957	558.80634	535.83752	158.04848	556.81152	517.28802	
3527	35.260	-251.24217	19.50079	-152.30635	213.54543	20.91389	-206.58194	-196.56570	22.33022	287.41422	266.76947	24.03748	229.95094	-20.93875	808.00385	-374.19650	-105.06437	550.36261	-339.10107	49.04526	552.44446	-361.49994	11.12951	558.81213	536.66547	158.22748	556.73059	518.10992	
3528	35.270	-251.22141	19.45278	-152.23322	213.83327	20.80327	-206.33832	-196.52071	22.31813	287.41794	266.79886	24.00607	229.97064	-20.47194	808.14117	-373.48685	-104.90495	550.52924	-338.64944	49.51290	552.59619	-360.78687	11.47102	558.78595	537.34796	158.57964	556.83179	518.75403	
3529	35.280	-251.19072	19.45752	-152.19565	213.58675	20.83224	-206.46056	-196.54774	22.32529	287.50986	266.80228	23.99204	230.01952	-20.15550	808.29059	-372.76779	-103.91745	550.33997	-337.51151	50.02835	552.66345	-359.96375	12.02734	558.74799	538.18848	159.35895	556.65436	519.62750	
3530	35.290	-251.15042	19.48271	-152.14978	213.61075	20.78149	-206.37534	-196.55957	22.39442	287.49963	266.83112	23.99524	230.09593	-19.40810	808.31812	-371.67496	-103.98096	550.59656	-337.01324	50.11817	552.63538	-359.18845	12.47028	558.68823	538.96539	159.69167	556.84387	520.38953	
3531	35.300	-251.21068	19.58755	-152.10942	213.85176	20.74405	-206.18311	-196.49677	22.42540	287.50891	266.83630	24.03331	230.12123	-19.16451	808.59125	-371.11359	-103.43114	550.69073	-336.01752	50.93485	552.76654	-358.26846	13.20516	558.66663	539.79535	160.29689	556.89044	521.27478	
3532	35.310	-251.19453	19.55866	-152.08508	213.64247	20.78201	-206.31631	-196.48074	22.35283	287.59232	266.79660	24.01907	230.15375	-18.77703	808.57520	-370.12076	-103.04021	550.73920	-335.12811	51.15773	552.79120	-357.71255	13.65448	558.57391	540.51514	160.65941	556.94220	522.18152	
3533	35.320	-250.96509	20.47470	-151.86613	213.57654	20.62160	-206.23529	-196.43259	22.17068	287.78284	266.88065	23.99700	230.30327	-18.37057	808.60620	-369.18015	-102.51328	550.80707	-334.43991	51.58263	552.92719	-356.67218	14.23529	558.68909	541.32214	161.80626	556.98938	523.41986	
3534	35.330	-249.90063	27.00120	-149.44121	213.58875	20.52881	-206.22427	-196.45615	21.97658	287.51089	266.98087	23.90175	230.35202	-18.41809	808.95416	-368.59476	-101.81058	550.43372	-333.77591	52.38245	553.24860	-355.99530	14.10293	558.58569	542.31274	161.35957	557.02368	523.75342	
3535	35.340	-246.56732	37.98458	-145.96570	213.84100	20.49852	-206.12691	-196.32544	22.10363	287.62051	267.04367	23.90285	230.39247	-18.56941	808.80658	-367.42343	-101.14724	549.91547	-333.30072	53.07848	553.32172	-355.41437	14.06623	558.54364	542.75671	161.44276	557.39319	524.41492	
